grf
version=1
nRows=11
nColumns=37
inDegrees=no
endheader
time	ground_force_1_vx	ground_force_1_vy	ground_force_1_vz	ground_force_1_px	ground_force_1_py	ground_force_1_pz	ground_moment_1_mx	ground_moment_1_my	ground_moment_1_mz	ground_force_2_vx	ground_force_2_vy	ground_force_2_vz	ground_force_2_px	ground_force_2_py	ground_force_2_pz	ground_moment_2_mx	ground_moment_2_my	ground_moment_2_mz	ground_force_3_vx	ground_force_3_vy	ground_force_3_vz	ground_force_3_px	ground_force_3_py	ground_force_3_pz	ground_moment_3_mx	ground_moment_3_my	ground_moment_3_mz	ground_force_4_vx	ground_force_4_vy	ground_force_4_vz	ground_force_4_px	ground_force_4_py	ground_force_4_pz	ground_moment_4_mx	ground_moment_4_my	ground_moment_4_mz
      5.52000000	      0.00000000	     -0.00000000	      0.00000000	      0.00000000	      0.00000000	      0.00000000	      0.00000000	      0.00000000	      0.00000000	      0.96559852	      3.62813807	   -663.37579346	   -281.44833485	  -1019.11729446	      0.00000000	      0.00000000	     -0.00000000	   -955.08779126	    -10.27443598	    -10.68692308	    -98.70685577	   -148.01205575	   -886.47548154	      0.00000000	      0.00000000	     -0.00000000	   -362.60389721	    -34.62494137	     16.10456769	     76.65291595	    602.31207035	   -561.84314971	      0.00000000	      0.00000000	     -0.00000000	   -245.65316243
      5.53000000	      0.00000000	     -0.00000000	      0.00000000	      0.00000000	      0.00000000	      0.00000000	      0.00000000	      0.00000000	      0.00000000	      1.11211789	      3.51294208	   -666.24340820	   -281.49137410	  -1018.76275416	      0.00000000	      0.00000000	      0.00000000	   -766.32278607	    -10.40527340	    -10.49994664	    -97.51606750	   -151.03665617	   -889.85789527	      0.00000000	      0.00000000	     -0.00000000	   -412.66934465	    -35.01946501	     15.89834615	     75.90818787	    604.81255532	   -561.78652752	      0.00000000	      0.00000000	     -0.00000000	    -45.54412630
      5.54000000	      0.00000000	     -0.00000000	      0.00000000	      0.00000000	      0.00000000	      0.00000000	      0.00000000	      0.00000000	      0.00000000	      1.11847472	      3.86959553	   -669.92236328	   -281.60319708	  -1019.02774050	      0.00000000	      0.00000000	     -0.00000000	   -844.60875020	    -10.22289273	    -10.52080923	    -96.96163940	   -151.28399893	   -887.29464775	      0.00000000	      0.00000000	      0.00000000	   -375.27378297	    -34.72469569	     16.29582899	     75.45471191	    606.74747472	   -564.58006116	      0.00000000	      0.00000000	     -0.00000000	   -176.30239141
      5.55000000	      0.00000000	     -0.00000000	      0.00000000	      0.00000000	      0.00000000	      0.00000000	      0.00000000	      0.00000000	      0.00000000	      1.00734746	      3.82150221	   -671.39501953	   -282.08984616	  -1019.63004021	      0.00000000	      0.00000000	     -0.00000000	   -794.26388155	     -9.92484565	    -10.38093575	    -96.96188354	   -149.41916059	   -881.00446954	      0.00000000	      0.00000000	     -0.00000000	   -609.56777078	    -35.31009154	     15.86081146	     76.46266174	    602.53961741	   -562.81519934	      0.00000000	      0.00000000	     -0.00000000	    -66.55320744
      5.56000000	      0.00000000	     -0.00000000	      0.00000000	      0.00000000	      0.00000000	      0.00000000	      0.00000000	      0.00000000	      0.00000000	      1.13705456	      3.92500901	   -671.69036865	   -282.23262043	  -1019.58274044	      0.00000000	      0.00000000	      0.00000000	  -1038.82547429	    -10.27553173	    -10.44383627	    -93.32544708	   -146.80887563	   -893.44426259	      0.00000000	     -0.00000000	     -0.00000000	   -197.86250279	    -35.05346539	     16.05241510	     74.65109253	    611.99527205	   -563.86230362	      0.00000000	      0.00000000	     -0.00000000	   -128.97158575
      5.57000000	      0.00000000	     -0.00000000	      0.00000000	      0.00000000	      0.00000000	      0.00000000	      0.00000000	      0.00000000	      0.00000000	      1.85906279	      3.83260727	   -670.42687988	   -282.20322326	  -1018.53843176	      0.00000000	      0.00000000	     -0.00000000	   -787.90382030	     -9.89858524	    -10.02067956	    -93.02005005	   -149.91238378	   -887.84689711	      0.00000000	      0.00000000	     -0.00000000	   -459.15154675	    -34.73787550	     15.95063990	     75.35324860	    604.91391129	   -566.28852053	      0.00000000	      0.00000000	     -0.00000000	     -3.63124128
      5.58000000	      0.00000000	     -0.00000000	      0.00000000	      0.00000000	      0.00000000	      0.00000000	      0.00000000	      0.00000000	      0.00000000	      2.25134468	      3.78099823	   -672.09204102	   -282.32420123	  -1020.06525327	      0.00000000	      0.00000000	     -0.00000000	   -593.60148700	     -9.64369670	     -9.90637313	    -91.82687378	   -151.87829484	   -888.12713298	      0.00000000	      0.00000000	      0.00000000	   -376.94540674	    -35.09352354	     15.91251585	     75.15774536	    605.28385416	   -565.03719945	      0.00000000	      0.00000000	     -0.00000000	     -5.27128473
      5.59000000	      0.00000000	     -0.00000000	      0.00000000	      0.00000000	      0.00000000	      0.00000000	      0.00000000	      0.00000000	      0.00000000	      1.82191598	      3.75541949	   -670.58679199	   -281.79903001	  -1019.95984397	      0.00000000	      0.00000000	     -0.00000000	   -749.26411040	     -9.17451276	     -9.68979278	    -90.02558899	   -149.75598309	   -889.10654565	      0.00000000	      0.00000000	     -0.00000000	   -427.70837553	    -34.92799236	     16.19453736	     74.80561066	    610.49154608	   -567.29236512	      0.00000000	     -0.00000000	     -0.00000000	   -105.33603548
      5.60000000	      0.00000000	     -0.00000000	      0.00000000	      0.00000000	      0.00000000	      0.00000000	      0.00000000	      0.00000000	      0.00000000	      1.64507270	      3.80840087	   -671.19738770	   -282.01727360	  -1020.18263678	      0.00000000	      0.00000000	     -0.00000000	   -712.55173051	     -8.84542739	     -9.51107234	    -88.87801361	   -153.48789775	   -886.27082082	      0.00000000	      0.00000000	     -0.00000000	   -320.54803795	    -34.76122142	     16.24617118	     77.15760803	    599.70847746	   -563.43828834	      0.00000000	     -0.00000000	     -0.00000000	   -128.90575453
      5.61000000	      0.00000000	     -0.00000000	      0.00000000	      0.00000000	      0.00000000	      0.00000000	      0.00000000	      0.00000000	      0.00000000	      1.31349504	      3.75675988	   -672.15020752	   -281.64449101	  -1020.11141939	      0.00000000	      0.00000000	     -0.00000000	   -939.08734075	     -8.50262911	     -9.00881121	    -87.23434448	   -153.37612872	   -886.49058286	      0.00000000	      0.00000000	      0.00000000	   -417.18730850	    -34.88880016	     16.18179817	     75.85535431	    604.71546341	   -565.94266726	      0.00000000	      0.00000000	      0.00000000	     79.12494447
      5.62000000	      0.00000000	     -0.00000000	      0.00000000	      0.00000000	      0.00000000	      0.00000000	      0.00000000	      0.00000000	      0.00000000	      2.54901099	      3.71842837	   -674.27014160	   -281.39274653	  -1020.45402518	      0.00000000	      0.00000000	     -0.00000000	   -765.67470901	     -7.79321318	     -8.77040223	    -84.94425201	   -150.04795699	   -887.86315451	      0.00000000	      0.00000000	      0.00000000	   -446.27231026	    -34.76094295	     16.23294181	     75.80566406	    606.48407367	   -565.17649012	      0.00000000	      0.00000000	      0.00000000	    -94.43793114
